<svg width="24" height="24" viewBox="0 0 24 24" fill="none" xmlns="http://www.w3.org/2000/svg">
<path fill-rule="evenodd" clip-rule="evenodd" d="M10.6667 7.33333C10.6667 6.59695 11.2636 6 12 6C12.7364 6 13.3334 6.59695 13.3334 7.33333C13.3334 8.06971 12.7364 8.66667 12 8.66667C11.2636 8.66667 10.6667 8.06971 10.6667 7.33333ZM10.6667 12C10.6667 11.2636 11.2636 10.6667 12 10.6667C12.7364 10.6667 13.3334 11.2636 13.3334 12C13.3334 12.7364 12.7364 13.3333 12 13.3333C11.2636 13.3333 10.6667 12.7364 10.6667 12ZM10.6667 16.6667C10.6667 15.9303 11.2636 15.3333 12 15.3333C12.7364 15.3333 13.3334 15.9303 13.3334 16.6667C13.3334 17.403 12.7364 18 12 18C11.2636 18 10.6667 17.403 10.6667 16.6667Z" fill="#126CD6"/>
</svg>
