<svg width="16" height="16" viewBox="0 0 16 16" fill="none" xmlns="http://www.w3.org/2000/svg">
<path fill-rule="evenodd" clip-rule="evenodd" d="M0.635468 14.0007C0.635468 13.6325 0.933944 13.3341 1.30213 13.3341H14.6355C15.0037 13.3341 15.3021 13.6325 15.3021 14.0007C15.3021 14.3689 15.0037 14.6674 14.6355 14.6674H1.30213C0.933944 14.6674 0.635468 14.3689 0.635468 14.0007Z" fill="#475569"/>
<path fill-rule="evenodd" clip-rule="evenodd" d="M3.7121 1.33333C3.71918 1.33333 3.72627 1.33333 3.73336 1.33333L12.288 1.33333C12.4562 1.33331 12.6201 1.33329 12.7588 1.34463C12.9112 1.35708 13.0911 1.38646 13.272 1.47866C13.5229 1.60649 13.7269 1.81046 13.8547 2.06134C13.9469 2.24229 13.9763 2.42211 13.9887 2.5745C14.0001 2.71327 14 2.87712 14 3.04537L14 14.6666C13.6667 14.6667 13.7016 14.6666 13.3334 14.6666C12.9652 14.6666 13 14.6667 12.6667 14.6666V3.06665C12.6667 2.86897 12.6662 2.7608 12.6598 2.68308C12.6596 2.67998 12.6593 2.67705 12.6591 2.67429C12.6563 2.67403 12.6534 2.67378 12.6503 2.67352C12.5725 2.66717 12.4644 2.66665 12.2667 2.66665H3.73336C3.53568 2.66665 3.42751 2.66717 3.34978 2.67352C3.34669 2.67378 3.34376 2.67403 3.34099 2.67429C3.34074 2.67705 3.34048 2.67998 3.34023 2.68308C3.33388 2.7608 3.33336 2.86897 3.33336 3.06665V14.6666C3.00002 14.6667 3.03488 14.6666 2.66669 14.6666C2.2985 14.6666 2.33336 14.6666 2.00003 14.6666V3.06665C2.00003 3.05956 2.00003 3.05247 2.00003 3.04539C2.00001 2.87713 1.99999 2.71327 2.01132 2.5745C2.02378 2.42211 2.05315 2.24229 2.14535 2.06134C2.27318 1.81046 2.47716 1.60649 2.72804 1.47866C2.90899 1.38646 3.08881 1.35708 3.24121 1.34463C3.37998 1.33329 3.54384 1.33331 3.7121 1.33333ZM7.04544 9.33326H8.95461C9.12287 9.33324 9.28674 9.33322 9.42551 9.34456C9.57791 9.35701 9.75773 9.38639 9.93868 9.47859C10.1896 9.60642 10.3935 9.81039 10.5214 10.0613C10.6136 10.2422 10.6429 10.422 10.6554 10.5744C10.6667 10.7132 10.6667 10.8771 10.6667 11.0453L10.6667 14.6666C10.3334 14.6675 10.3682 14.6665 10 14.6665C9.63184 14.6665 9.66669 14.6675 9.33336 14.6674V11.0666C9.33336 10.8689 9.33284 10.7607 9.32649 10.683C9.32624 10.6799 9.32598 10.677 9.32573 10.6742C9.32296 10.674 9.32003 10.6737 9.31694 10.6735C9.23921 10.6671 9.13105 10.6666 8.93336 10.6666H7.06669C6.86901 10.6666 6.76084 10.6671 6.68312 10.6735C6.68002 10.6737 6.67709 10.674 6.67433 10.6742C6.67407 10.677 6.67382 10.6799 6.67356 10.683C6.66721 10.7607 6.66669 10.8689 6.66669 11.0666V14.6666C6.33335 14.6667 6.42956 14.6674 6.06137 14.6674C5.69318 14.6674 5.66668 14.6667 5.33336 14.6666L5.33336 11.0453C5.33334 10.8771 5.33332 10.7132 5.34466 10.5744C5.35711 10.422 5.38649 10.2422 5.47869 10.0613C5.60652 9.81039 5.81049 9.60642 6.06137 9.47859C6.24232 9.38639 6.42215 9.35701 6.57454 9.34456C6.71332 9.33322 6.87718 9.33324 7.04544 9.33326Z" fill="#475569"/>
<path fill-rule="evenodd" clip-rule="evenodd" d="M4.66669 4.66664C4.66669 4.29845 4.96517 3.99998 5.33336 3.99998H6.66669C7.03488 3.99998 7.33336 4.29845 7.33336 4.66664C7.33336 5.03482 7.03488 5.3333 6.66669 5.3333H5.33336C4.96517 5.3333 4.66669 5.03482 4.66669 4.66664Z" fill="#475569"/>
<path fill-rule="evenodd" clip-rule="evenodd" d="M4.66669 7.33328C4.66669 6.96509 4.96517 6.66662 5.33336 6.66662H6.66669C7.03488 6.66662 7.33336 6.96509 7.33336 7.33328C7.33336 7.70147 7.03488 7.99994 6.66669 7.99994H5.33336C4.96517 7.99994 4.66669 7.70147 4.66669 7.33328Z" fill="#475569"/>
<path fill-rule="evenodd" clip-rule="evenodd" d="M8.66669 4.66664C8.66669 4.29845 8.96517 3.99998 9.33336 3.99998H10.6667C11.0349 3.99998 11.3334 4.29845 11.3334 4.66664C11.3334 5.03482 11.0349 5.3333 10.6667 5.3333H9.33336C8.96517 5.3333 8.66669 5.03482 8.66669 4.66664Z" fill="#475569"/>
<path fill-rule="evenodd" clip-rule="evenodd" d="M8.66669 7.33328C8.66669 6.96509 8.96517 6.66662 9.33336 6.66662H10.6667C11.0349 6.66662 11.3334 6.96509 11.3334 7.33328C11.3334 7.70147 11.0349 7.99994 10.6667 7.99994H9.33336C8.96517 7.99994 8.66669 7.70147 8.66669 7.33328Z" fill="#475569"/>
</svg>
