<svg width="20" height="20" viewBox="0 0 20 20" fill="none" xmlns="http://www.w3.org/2000/svg">
<path fill-rule="evenodd" clip-rule="evenodd" d="M5.13457 1.66666L14.8655 1.66666C15.3048 1.66664 15.6837 1.66663 15.9959 1.69213C16.3253 1.71905 16.653 1.77848 16.9683 1.93914C17.4387 2.17883 17.8212 2.56128 18.0609 3.03168C18.2215 3.347 18.281 3.67468 18.3079 4.00414C18.3334 4.31627 18.3334 4.69524 18.3334 5.13452V5.6988C18.3334 6.13808 18.3334 6.51704 18.3079 6.82918C18.281 7.15864 18.2215 7.48632 18.0609 7.80163C17.8212 8.27204 17.4387 8.65449 16.9683 8.89418C16.653 9.05484 16.3253 9.11427 15.9959 9.14118C15.6837 9.16669 15.3047 9.16667 14.8654 9.16666H5.13459C4.69529 9.16667 4.31631 9.16669 4.00416 9.14118C3.67471 9.11427 3.34703 9.05484 3.03171 8.89417C2.56131 8.65449 2.17886 8.27204 1.93917 7.80163C1.77851 7.48632 1.71908 7.15864 1.69216 6.82918C1.66666 6.51704 1.66667 6.13807 1.66669 5.69878V5.13454C1.66667 4.69525 1.66666 4.31628 1.69216 4.00413C1.71908 3.67468 1.77851 3.347 1.93917 3.03168C2.17886 2.56128 2.56131 2.17883 3.03171 1.93914C3.34703 1.77848 3.67471 1.71905 4.00417 1.69213C4.31631 1.66663 4.69528 1.66664 5.13457 1.66666ZM4.13989 3.35326C3.9135 3.37176 3.82957 3.40316 3.78836 3.42415C3.63156 3.50405 3.50408 3.63153 3.42418 3.78833C3.40319 3.82954 3.37179 3.91347 3.35329 4.13985C3.334 4.37597 3.33336 4.6862 3.33336 5.16666V5.66666C3.33336 6.14712 3.334 6.45735 3.35329 6.69346C3.37179 6.91985 3.40319 7.00378 3.42418 7.04498C3.50408 7.20179 3.63156 7.32927 3.78836 7.40916C3.82957 7.43016 3.9135 7.46156 4.13988 7.48005C4.376 7.49934 4.68623 7.49999 5.16669 7.49999L14.8334 7.49999C15.3138 7.49999 15.624 7.49934 15.8602 7.48005C16.0865 7.46156 16.1705 7.43016 16.2117 7.40916C16.3685 7.32927 16.496 7.20179 16.5759 7.04498C16.5969 7.00378 16.6283 6.91985 16.6467 6.69346C16.666 6.45735 16.6667 6.14712 16.6667 5.66666V5.16666C16.6667 4.6862 16.666 4.37597 16.6467 4.13985C16.6283 3.91347 16.5969 3.82954 16.5759 3.78833C16.496 3.63153 16.3685 3.50405 16.2117 3.42415C16.1705 3.40316 16.0865 3.37176 15.8602 3.35326C15.624 3.33397 15.3138 3.33333 14.8334 3.33333L5.16669 3.33332C4.68623 3.33332 4.376 3.33397 4.13989 3.35326ZM5.13459 10.8333L14.8655 10.8333C15.3048 10.8333 15.6837 10.8333 15.9959 10.8588C16.3253 10.8857 16.653 10.9451 16.9683 11.1058C17.4387 11.3455 17.8212 11.7279 18.0609 12.1983C18.2215 12.5137 18.281 12.8413 18.3079 13.1708C18.3334 13.4829 18.3334 13.8619 18.3334 14.3012V14.8655C18.3334 15.3047 18.3334 15.6837 18.3079 15.9958C18.281 16.3253 18.2215 16.653 18.0609 16.9683C17.8212 17.4387 17.4387 17.8212 16.9683 18.0608C16.653 18.2215 16.3253 18.2809 15.9959 18.3078C15.6837 18.3334 15.3048 18.3333 14.8655 18.3333H5.13455C4.69527 18.3333 4.3163 18.3334 4.00416 18.3078C3.67471 18.2809 3.34703 18.2215 3.03171 18.0608C2.56131 17.8212 2.17886 17.4387 1.93917 16.9683C1.77851 16.653 1.71908 16.3253 1.69216 15.9958C1.66666 15.6837 1.66667 15.3047 1.66669 14.8654V14.3012C1.66667 13.8619 1.66666 13.4829 1.69216 13.1708C1.71908 12.8413 1.77851 12.5137 1.93917 12.1983C2.17886 11.7279 2.56131 11.3455 3.03171 11.1058C3.34703 10.9451 3.67471 10.8857 4.00417 10.8588C4.31631 10.8333 4.69529 10.8333 5.13459 10.8333ZM4.13989 12.5199C3.9135 12.5384 3.82957 12.5698 3.78836 12.5908C3.63156 12.6707 3.50408 12.7982 3.42418 12.955C3.40319 12.9962 3.37179 13.0801 3.35329 13.3065C3.334 13.5426 3.33336 13.8529 3.33336 14.3333V14.8333C3.33336 15.3138 3.334 15.624 3.35329 15.8601C3.37179 16.0865 3.40319 16.1704 3.42418 16.2116C3.50408 16.3685 3.63156 16.4959 3.78836 16.5758C3.82957 16.5968 3.9135 16.6282 4.13988 16.6467C4.376 16.666 4.68623 16.6667 5.16669 16.6667H14.8334C15.3138 16.6667 15.624 16.666 15.8602 16.6467C16.0865 16.6282 16.1705 16.5968 16.2117 16.5758C16.3685 16.4959 16.496 16.3685 16.5759 16.2116C16.5969 16.1704 16.6283 16.0865 16.6467 15.8601C16.666 15.624 16.6667 15.3138 16.6667 14.8333V14.3333C16.6667 13.8529 16.666 13.5426 16.6467 13.3065C16.6283 13.0801 16.5969 12.9962 16.5759 12.955C16.496 12.7982 16.3685 12.6707 16.2117 12.5908C16.1705 12.5698 16.0865 12.5384 15.8602 12.5199C15.624 12.5006 15.3138 12.5 14.8334 12.5L5.16669 12.5C4.68623 12.5 4.376 12.5006 4.13989 12.5199Z" fill="#475569"/>
</svg>
