<svg width="16" height="16" viewBox="0 0 16 16" fill="none" xmlns="http://www.w3.org/2000/svg">
<path fill-rule="evenodd" clip-rule="evenodd" d="M4.14034 1.33333C4.50853 1.33333 4.80701 1.63181 4.80701 1.99999V3.39502L6.34666 2.75122L8.10849 2.06363C8.31364 1.98357 8.5451 2.00998 8.72694 2.13421C8.90878 2.25844 9.01753 2.46446 9.01753 2.68468V7.01402L13.085 5.38131C13.2904 5.29885 13.5234 5.32373 13.7067 5.44772C13.8901 5.57171 14 5.77864 14 6V14H14.6667C15.0348 14 15.3333 14.2985 15.3333 14.6667C15.3333 15.0349 15.0348 15.3333 14.6667 15.3333H1.33332C0.965133 15.3333 0.666656 15.0349 0.666656 14.6667C0.666656 14.2985 0.965133 14 1.33332 14H2.07017V5.49762C2.07017 4.98789 2.36078 4.52276 2.8189 4.29927L3.47367 3.97985V1.99999C3.47367 1.63181 3.77215 1.33333 4.14034 1.33333ZM4.41532 5.00401L3.4035 5.49762V14H7.6842V3.6605L6.8463 3.98751L4.41532 5.00401ZM9.01753 14H12.6667V6.98597L9.01753 8.45076V14ZM3.99999 7.19075C3.99999 6.82256 4.29847 6.52408 4.66666 6.52408H6.33332C6.70151 6.52408 6.99999 6.82256 6.99999 7.19075C6.99999 7.55894 6.70151 7.85742 6.33332 7.85742H4.66666C4.29847 7.85742 3.99999 7.55894 3.99999 7.19075ZM3.99999 9.85742C3.99999 9.48923 4.29847 9.19075 4.66666 9.19075H6.33332C6.70151 9.19075 6.99999 9.48923 6.99999 9.85742C6.99999 10.2256 6.70151 10.5241 6.33332 10.5241H4.66666C4.29847 10.5241 3.99999 10.2256 3.99999 9.85742Z" fill="#475569"/>
</svg>
