<svg width="20" height="20" viewBox="0 0 20 20" fill="none" xmlns="http://www.w3.org/2000/svg">
<path fill-rule="evenodd" clip-rule="evenodd" d="M5.83331 6.66667C3.99236 6.66667 2.49998 8.15905 2.49998 10C2.49998 11.8409 3.99236 13.3333 5.83331 13.3333H7.49998C7.96022 13.3333 8.33331 13.7064 8.33331 14.1667C8.33331 14.6269 7.96022 15 7.49998 15H5.83331C3.07189 15 0.833313 12.7614 0.833313 10C0.833313 7.23858 3.07189 5 5.83331 5H7.49998C7.96022 5 8.33331 5.3731 8.33331 5.83333C8.33331 6.29357 7.96022 6.66667 7.49998 6.66667H5.83331ZM11.6666 5.83333C11.6666 5.3731 12.0397 5 12.5 5H14.1666C16.9281 5 19.1666 7.23858 19.1666 10C19.1666 12.7614 16.9281 15 14.1666 15H12.5C12.0397 15 11.6666 14.6269 11.6666 14.1667C11.6666 13.7064 12.0397 13.3333 12.5 13.3333H14.1666C16.0076 13.3333 17.5 11.8409 17.5 10C17.5 8.15905 16.0076 6.66667 14.1666 6.66667H12.5C12.0397 6.66667 11.6666 6.29357 11.6666 5.83333ZM4.99998 10C4.99998 9.53976 5.37308 9.16667 5.83331 9.16667L14.1666 9.16667C14.6269 9.16667 15 9.53976 15 10C15 10.4602 14.6269 10.8333 14.1666 10.8333L5.83331 10.8333C5.37308 10.8333 4.99998 10.4602 4.99998 10Z" fill="#126CD6"/>
</svg>
