<svg width="24" height="24" viewBox="0 0 24 24" fill="none" xmlns="http://www.w3.org/2000/svg">
<g clip-path="url(#clip0_70_7168)">
<path d="M23.3389 0.000105619H20.8656C20.5005 0.000105619 20.2045 0.241811 20.2045 0.539941V2.31697C20.2045 2.6151 20.5005 2.85675 20.8656 2.85675H23.3389C23.704 2.85675 24 2.6151 24 2.31697V0.539941C24 0.241811 23.704 0.000105619 23.3389 0.000105619Z" fill="#469DDC"/>
<path d="M16.2057 10.5924H1.3576C0.607825 10.5924 0 11.0715 0 11.6625V23.262C0 23.6693 0.418918 23.9995 0.935688 23.9995H2.72844C3.24521 23.9995 3.66413 23.6693 3.66413 23.262V13.4491H16.2057C16.7225 13.4491 17.1413 13.1189 17.1413 12.7117V11.33C17.1413 10.9226 16.7225 10.5924 16.2057 10.5924Z" fill="#469DDC"/>
<path d="M16.2057 0.000105619H0.935237C0.41872 0.000105619 0 0.330149 0 0.737227V2.26024C0 2.58833 0.337455 2.85435 0.753747 2.85435H7.32657V2.85675H16.2057C16.7225 2.85675 17.1413 2.52661 17.1413 2.11928V0.737576C17.1413 0.330298 16.7225 0.000105619 16.2057 0.000105619Z" fill="#469DDC"/>
</g>
<defs>
<clipPath id="clip0_70_7168">
<rect width="24" height="24" fill="white"/>
</clipPath>
</defs>
</svg>
