<svg width="34" height="24" viewBox="0 0 34 24" fill="none" xmlns="http://www.w3.org/2000/svg">
<path d="M13.2085 16.144C12.3765 16.144 11.6405 15.96 11.0005 15.592C10.3605 15.224 9.85647 14.712 9.48847 14.056C9.12847 13.4 8.94847 12.648 8.94847 11.8C8.94847 10.952 9.12847 10.204 9.48847 9.556C9.85647 8.9 10.3565 8.388 10.9885 8.02C11.6205 7.644 12.3485 7.456 13.1725 7.456C14.0045 7.456 14.7365 7.644 15.3685 8.02C16.0085 8.388 16.5045 8.9 16.8565 9.556C17.2165 10.204 17.3965 10.952 17.3965 11.8C17.3965 12.648 17.2165 13.4 16.8565 14.056C16.5045 14.712 16.0125 15.224 15.3805 15.592C14.7565 15.96 14.0325 16.144 13.2085 16.144ZM13.2085 14.872C13.7525 14.872 14.2325 14.74 14.6485 14.476C15.0645 14.212 15.3885 13.852 15.6205 13.396C15.8605 12.932 15.9805 12.4 15.9805 11.8C15.9805 11.208 15.8605 10.68 15.6205 10.216C15.3805 9.752 15.0485 9.392 14.6245 9.136C14.2085 8.872 13.7245 8.74 13.1725 8.74C12.6285 8.74 12.1445 8.872 11.7205 9.136C11.3045 9.392 10.9725 9.752 10.7245 10.216C10.4845 10.672 10.3645 11.2 10.3645 11.8C10.3645 12.4 10.4845 12.932 10.7245 13.396C10.9725 13.852 11.3085 14.212 11.7325 14.476C12.1645 14.74 12.6565 14.872 13.2085 14.872ZM20.1349 12.904V11.62H21.8989C22.1709 11.62 22.4109 11.56 22.6189 11.44C22.8349 11.32 23.0069 11.156 23.1349 10.948C23.2709 10.74 23.3389 10.504 23.3389 10.24C23.3389 9.84 23.1949 9.512 22.9069 9.256C22.6189 9 22.2469 8.872 21.7909 8.872H20.1349V7.6L21.8389 7.588C22.4149 7.58 22.9229 7.692 23.3629 7.924C23.8029 8.148 24.1469 8.46 24.3949 8.86C24.6429 9.26 24.7669 9.72 24.7669 10.24C24.7669 10.76 24.6349 11.22 24.3709 11.62C24.1149 12.02 23.7589 12.336 23.3029 12.568C22.8469 12.792 22.3309 12.904 21.7549 12.904H20.1349ZM18.8749 16V7.6H20.2669V16H18.8749ZM23.5309 16L21.5629 12.592L22.6429 11.848L25.1029 16H23.5309Z" fill="#475569"/>
</svg>
