<svg width="16" height="16" viewBox="0 0 16 16" fill="none" xmlns="http://www.w3.org/2000/svg">
<path fill-rule="evenodd" clip-rule="evenodd" d="M7.90827 1.3333C7.9384 1.33332 7.96897 1.33333 7.99999 1.33333C8.03102 1.33333 8.06158 1.33332 8.09171 1.3333C8.62197 1.33301 9.01574 1.3328 9.35684 1.4242C10.2771 1.67078 10.9959 2.38957 11.2425 3.30982C11.2974 3.51479 11.3192 3.73879 11.3278 4L12.559 4C12.9105 3.99999 13.2136 3.99998 13.4633 4.02038C13.7269 4.04191 13.9891 4.08946 14.2413 4.21799C14.6176 4.40973 14.9236 4.7157 15.1153 5.09202C15.2439 5.34427 15.2914 5.60642 15.3129 5.86998C15.3333 6.11969 15.3333 6.42286 15.3333 6.77429V11.8924C15.3333 12.2438 15.3333 12.547 15.3129 12.7967C15.2914 13.0602 15.2439 13.3224 15.1153 13.5746C14.9236 13.951 14.6176 14.2569 14.2413 14.4487C13.9891 14.5772 13.7269 14.6248 13.4633 14.6463C13.2136 14.6667 12.9105 14.6667 12.559 14.6667H3.44095C3.08952 14.6667 2.78635 14.6667 2.53664 14.6463C2.27308 14.6248 2.01093 14.5772 1.75868 14.4487C1.38235 14.2569 1.07639 13.951 0.884645 13.5746C0.756115 13.3224 0.708571 13.0602 0.687037 12.7967C0.666635 12.547 0.666645 12.2438 0.666657 11.8924V6.7743C0.666645 6.42287 0.666635 6.1197 0.687037 5.86998C0.708571 5.60642 0.756115 5.34427 0.884645 5.09202C1.07639 4.71569 1.38235 4.40973 1.75868 4.21799C2.01093 4.08946 2.27308 4.04191 2.53664 4.02038C2.78635 3.99998 3.08953 3.99999 3.44096 4L4.67213 4C4.68076 3.73879 4.7026 3.51479 4.75752 3.30982C5.0041 2.38957 5.72289 1.67078 6.64314 1.4242C6.98424 1.3328 7.37801 1.33301 7.90827 1.3333ZM3.46666 5.33333C3.08229 5.33333 2.83411 5.33385 2.64521 5.34928C2.46411 5.36408 2.39696 5.3892 2.364 5.406C2.23856 5.46991 2.13657 5.5719 2.07265 5.69734C2.05586 5.7303 2.03074 5.79745 2.01594 5.97856C2.00051 6.16745 1.99999 6.41563 1.99999 6.8V11.8667C1.99999 12.251 2.00051 12.4992 2.01594 12.6881C2.03074 12.8692 2.05586 12.9364 2.07265 12.9693C2.13657 13.0948 2.23856 13.1968 2.364 13.2607C2.39696 13.2775 2.46411 13.3026 2.64522 13.3174C2.83411 13.3328 3.08229 13.3333 3.46666 13.3333H12.5333C12.9177 13.3333 13.1659 13.3328 13.3548 13.3174C13.5359 13.3026 13.603 13.2775 13.636 13.2607C13.7614 13.1968 13.8634 13.0948 13.9273 12.9693C13.9441 12.9364 13.9692 12.8692 13.984 12.6881C13.9995 12.4992 14 12.251 14 11.8667V6.8C14 6.41563 13.9995 6.16745 13.984 5.97856C13.9692 5.79745 13.9441 5.7303 13.9273 5.69734C13.8634 5.5719 13.7614 5.46991 13.636 5.406C13.603 5.3892 13.5359 5.36408 13.3548 5.34928C13.1659 5.33385 12.9177 5.33333 12.5333 5.33333H3.46666ZM9.99342 4H6.00657C6.01269 3.82828 6.0242 3.7341 6.04542 3.65491C6.16871 3.19479 6.52811 2.83539 6.98823 2.7121C7.13642 2.67239 7.33709 2.66667 7.99999 2.66667C8.66289 2.66667 8.86356 2.67239 9.01175 2.7121C9.47187 2.83539 9.83127 3.19479 9.95456 3.65491C9.97578 3.7341 9.98729 3.82828 9.99342 4Z" fill="#475569"/>
</svg>
