<svg width="20" height="20" viewBox="0 0 20 20" fill="none" xmlns="http://www.w3.org/2000/svg">
<path fill-rule="evenodd" clip-rule="evenodd" d="M9.4882 1.7877C9.81091 1.62631 10.1891 1.62631 10.5118 1.7877C10.784 1.92379 10.9317 2.15751 11.0067 2.28601C11.086 2.42189 11.168 2.59611 11.2504 2.7713C11.2543 2.77955 11.2582 2.78779 11.262 2.79604L12.9972 6.48313L16.8913 7.08014C17.074 7.10811 17.2607 7.13669 17.4119 7.17482C17.5614 7.21254 17.8233 7.29173 18.0279 7.5182C18.2626 7.77813 18.3667 8.12628 18.324 8.46572C18.2872 8.75789 18.1293 8.97107 18.031 9.09148C17.9317 9.21331 17.7982 9.34966 17.665 9.48565L14.8282 12.3838L15.4988 16.4851C15.5304 16.6783 15.5616 16.869 15.5735 17.0267C15.585 17.1788 15.5944 17.4457 15.4592 17.7068C15.2994 18.0153 15.0069 18.2461 14.6512 18.3153C14.3449 18.3749 14.0827 18.2727 13.9454 18.213C13.8024 18.1507 13.636 18.0589 13.4723 17.9685L10 16.0532L6.52771 17.9686C6.36396 18.0589 6.19764 18.1507 6.05459 18.213C5.91728 18.2727 5.65515 18.3749 5.34887 18.3153C4.99311 18.2461 4.70065 18.0153 4.54085 17.7068C4.40565 17.4457 4.41502 17.1788 4.4265 17.0267C4.43841 16.869 4.46961 16.6783 4.50123 16.4852L5.17186 12.3838L2.35409 9.50513C2.34772 9.49862 2.34135 9.49212 2.33498 9.48561C2.20183 9.34963 2.06834 9.21329 1.96898 9.09148C1.87075 8.97107 1.71282 8.75789 1.67604 8.46572C1.6333 8.12628 1.73738 7.77813 1.97216 7.5182C2.17671 7.29173 2.43861 7.21254 2.58814 7.17482C2.73932 7.13669 2.92598 7.10811 3.10871 7.08014C3.11792 7.07873 3.12712 7.07732 3.13631 7.07591L7.00283 6.48313L8.73797 2.79604C8.74185 2.78779 8.74573 2.77954 8.74961 2.7713C8.83202 2.59611 8.91398 2.42188 8.99328 2.28601C9.06829 2.15751 9.21607 1.92379 9.4882 1.7877ZM10 3.67261L8.35141 7.1758C8.34812 7.18279 8.34446 7.19071 8.34043 7.19944C8.30162 7.28352 8.22807 7.44286 8.11104 7.57497C8.01098 7.68794 7.88911 7.78154 7.75111 7.84885C7.58699 7.9289 7.40912 7.95462 7.32131 7.96731C7.31227 7.96862 7.30419 7.96979 7.29717 7.97086L3.5368 8.54737L6.28048 11.3504C6.28582 11.3558 6.29187 11.3619 6.29853 11.3686C6.3635 11.434 6.4865 11.5579 6.5698 11.7148C6.63987 11.8468 6.68406 11.9903 6.70106 12.1373C6.72107 12.3104 6.69214 12.4803 6.67626 12.5734C6.67463 12.583 6.67313 12.5918 6.67184 12.5997L6.0322 16.5115L9.33482 14.6897C9.34109 14.6863 9.34829 14.6822 9.35635 14.6777C9.43402 14.634 9.59153 14.5453 9.77003 14.5086C9.92181 14.4774 10.0782 14.4774 10.23 14.5086C10.4085 14.5453 10.566 14.634 10.6437 14.6777C10.6517 14.6822 10.6589 14.6863 10.6652 14.6897L13.9678 16.5115L13.3282 12.5997C13.3269 12.5918 13.3254 12.583 13.3238 12.5734C13.3079 12.4803 13.2789 12.3104 13.299 12.1373C13.316 11.9903 13.3601 11.8468 13.4302 11.7148C13.5135 11.5579 13.6365 11.434 13.7015 11.3686C13.7081 11.3619 13.7142 11.3558 13.7195 11.3504L16.4632 8.54737L12.7028 7.97086C12.6958 7.96979 12.6877 7.96862 12.6787 7.96731C12.5909 7.95462 12.413 7.9289 12.2489 7.84885C12.1109 7.78154 11.989 7.68794 11.889 7.57497C11.7719 7.44285 11.6984 7.28351 11.6596 7.19944C11.6556 7.19071 11.6519 7.18279 11.6486 7.1758L10 3.67261Z" fill="#475569"/>
</svg>
