<svg width="20" height="20" viewBox="0 0 20 20" fill="none" xmlns="http://www.w3.org/2000/svg">
<path fill-rule="evenodd" clip-rule="evenodd" d="M10 1.66666C10.4603 1.66666 10.8334 2.03975 10.8334 2.49999V10.4881L13.5774 7.74407C13.9029 7.41863 14.4305 7.41863 14.7559 7.74407C15.0814 8.0695 15.0814 8.59714 14.7559 8.92258L10.5893 13.0892C10.2638 13.4147 9.7362 13.4147 9.41077 13.0892L5.2441 8.92258C4.91866 8.59714 4.91866 8.0695 5.2441 7.74407C5.56954 7.41863 6.09717 7.41863 6.42261 7.74407L9.16669 10.4881V2.49999C9.16669 2.03975 9.53978 1.66666 10 1.66666ZM2.50002 11.6667C2.96026 11.6667 3.33335 12.0398 3.33335 12.5V13.5C3.33335 14.2138 3.334 14.6991 3.36465 15.0741C3.3945 15.4395 3.4486 15.6263 3.51501 15.7566C3.6748 16.0702 3.92977 16.3252 4.24337 16.485C4.3737 16.5514 4.56054 16.6055 4.92589 16.6354C5.30096 16.666 5.7862 16.6667 6.50002 16.6667H13.5C14.2138 16.6667 14.6991 16.666 15.0742 16.6354C15.4395 16.6055 15.6263 16.5514 15.7567 16.485C16.0703 16.3252 16.3252 16.0702 16.485 15.7566C16.5514 15.6263 16.6055 15.4395 16.6354 15.0741C16.666 14.6991 16.6667 14.2138 16.6667 13.5V12.5C16.6667 12.0398 17.0398 11.6667 17.5 11.6667C17.9603 11.6667 18.3334 12.0398 18.3334 12.5V13.5344C18.3334 14.2052 18.3334 14.7589 18.2965 15.2098C18.2583 15.6783 18.1761 16.1088 17.97 16.5133C17.6505 17.1405 17.1405 17.6504 16.5133 17.97C16.1089 18.1761 15.6783 18.2582 15.2099 18.2965C14.7589 18.3333 14.2053 18.3333 13.5345 18.3333H6.46558C5.79478 18.3333 5.24116 18.3333 4.79017 18.2965C4.32175 18.2582 3.89117 18.1761 3.48672 17.97C2.85951 17.6504 2.34958 17.1405 2.03 16.5133C1.82392 16.1088 1.74179 15.6783 1.70352 15.2098C1.66667 14.7588 1.66668 14.2052 1.66669 13.5344L1.66669 12.5C1.66669 12.0398 2.03978 11.6667 2.50002 11.6667Z" fill="#475569"/>
</svg>
