<svg width="20" height="20" viewBox="0 0 20 20" fill="none" xmlns="http://www.w3.org/2000/svg">
<path fill-rule="evenodd" clip-rule="evenodd" d="M13.3333 9.16667C13.7936 9.16667 14.1667 9.53977 14.1667 10V12.5H16.6667C17.1269 12.5 17.5 12.8731 17.5 13.3333C17.5 13.7936 17.1269 14.1667 16.6667 14.1667H14.1667V16.6667C14.1667 17.1269 13.7936 17.5 13.3333 17.5C12.8731 17.5 12.5 17.1269 12.5 16.6667V14.1667H10C9.53976 14.1667 9.16667 13.7936 9.16667 13.3333C9.16667 12.8731 9.53976 12.5 10 12.5H12.5V10C12.5 9.53977 12.8731 9.16667 13.3333 9.16667Z" fill="#475569"/>
<path fill-rule="evenodd" clip-rule="evenodd" d="M2.5 13.3333C2.5 12.8731 2.68655 12.5 2.91667 12.5H7.08333C7.31345 12.5 7.5 12.8731 7.5 13.3333C7.5 13.7936 7.31345 14.1667 7.08333 14.1667H2.91667C2.68655 14.1667 2.5 13.7936 2.5 13.3333Z" fill="#475569"/>
<path fill-rule="evenodd" clip-rule="evenodd" d="M2.5 9.16667C2.5 8.70643 2.68655 8.33334 2.91667 8.33334H10.4167C10.6468 8.33334 10.8333 8.70643 10.8333 9.16667C10.8333 9.62691 10.6468 10 10.4167 10H2.91667C2.68655 10 2.5 9.62691 2.5 9.16667Z" fill="#475569"/>
<path fill-rule="evenodd" clip-rule="evenodd" d="M2.5 5.00001C2.5 4.53977 2.68655 4.16667 2.91667 4.16667H10.4167C10.6468 4.16667 10.8333 4.53977 10.8333 5.00001C10.8333 5.46024 10.6468 5.83334 10.4167 5.83334H2.91667C2.68655 5.83334 2.5 5.46024 2.5 5.00001Z" fill="#475569"/>
</svg>
