<svg width="16" height="16" viewBox="0 0 16 16" fill="none" xmlns="http://www.w3.org/2000/svg">
<path fill-rule="evenodd" clip-rule="evenodd" d="M6.66666 2.66668C4.45752 2.66668 2.66666 4.45754 2.66666 6.66668C2.66666 8.87582 4.45752 10.6667 6.66666 10.6667C8.8758 10.6667 10.6667 8.87582 10.6667 6.66668C10.6667 4.45754 8.8758 2.66668 6.66666 2.66668ZM1.33333 6.66668C1.33333 3.72116 3.72114 1.33334 6.66666 1.33334C9.61218 1.33334 12 3.72116 12 6.66668C12 7.89914 11.582 9.03396 10.8799 9.93707L14.4714 13.5286C14.7318 13.789 14.7317 14.2111 14.4714 14.4714C14.211 14.7318 13.7889 14.7318 13.5286 14.4714L9.93712 10.8799C9.034 11.5819 7.89915 12 6.66666 12C3.72114 12 1.33333 9.6122 1.33333 6.66668Z" fill="#475569"/>
</svg>
