<svg width="20" height="20" viewBox="0 0 20 20" fill="none" xmlns="http://www.w3.org/2000/svg">
<g clip-path="url(#clip0_97_6577)">
<path fill-rule="evenodd" clip-rule="evenodd" d="M3.74998 2.49999C3.41846 2.49999 3.10052 2.63169 2.8661 2.86611C2.63168 3.10053 2.49998 3.41847 2.49998 3.74999V16.25C2.49998 16.5815 2.63168 16.8995 2.8661 17.1339C3.10052 17.3683 3.41846 17.5 3.74998 17.5H16.25C16.5815 17.5 16.8994 17.3683 17.1339 17.1339C17.3683 16.8995 17.5 16.5815 17.5 16.25V3.74999C17.5 3.41847 17.3683 3.10053 17.1339 2.86611C16.8994 2.63169 16.5815 2.49999 16.25 2.49999H3.74998ZM1.68758 1.6876C2.23457 1.14062 2.97643 0.833328 3.74998 0.833328H16.25C17.0235 0.833328 17.7654 1.14062 18.3124 1.6876C18.8594 2.23458 19.1666 2.97645 19.1666 3.74999V16.25C19.1666 17.0235 18.8594 17.7654 18.3124 18.3124C17.7654 18.8594 17.0235 19.1667 16.25 19.1667H3.74998C2.97643 19.1667 2.23457 18.8594 1.68758 18.3124C1.1406 17.7654 0.833313 17.0235 0.833313 16.25V3.74999C0.833313 2.97645 1.1406 2.23458 1.68758 1.6876ZM5.83331 5.83333C6.29355 5.83333 6.66665 6.20642 6.66665 6.66666V6.67708C6.66665 7.13732 6.29355 7.51041 5.83331 7.51041C5.37308 7.51041 4.99998 7.13732 4.99998 6.67708V6.66666C4.99998 6.20642 5.37308 5.83333 5.83331 5.83333ZM5.83331 8.12499C6.29355 8.12499 6.66665 8.49809 6.66665 8.95833V14.1667C6.66665 14.6269 6.29355 15 5.83331 15C5.37308 15 4.99998 14.6269 4.99998 14.1667V8.95833C4.99998 8.49809 5.37308 8.12499 5.83331 8.12499ZM9.16665 8.12499C9.62688 8.12499 9.99998 8.49809 9.99998 8.95833V14.1667C9.99998 14.6269 9.62688 15 9.16665 15C8.70641 15 8.33331 14.6269 8.33331 14.1667V8.95833C8.33331 8.49809 8.70641 8.12499 9.16665 8.12499Z" fill="#126CD6"/>
<path fill-rule="evenodd" clip-rule="evenodd" d="M9.18758 8.97927C9.73456 8.43229 10.4764 8.12499 11.25 8.12499C12.0235 8.12499 12.7654 8.43229 13.3124 8.97927C13.8594 9.52625 14.1666 10.2681 14.1666 11.0417V14.1667C14.1666 14.6269 13.7935 15 13.3333 15C12.8731 15 12.5 14.6269 12.5 14.1667V11.0417C12.5 10.7101 12.3683 10.3922 12.1339 10.1578C11.8994 9.92336 11.5815 9.79166 11.25 9.79166C10.9185 9.79166 10.6005 9.92336 10.3661 10.1578C10.1317 10.3922 9.99998 10.7101 9.99998 11.0417C9.99998 11.5019 9.62688 11.875 9.16665 11.875C8.70641 11.875 8.33331 11.5019 8.33331 11.0417C8.33331 10.2681 8.6406 9.52625 9.18758 8.97927Z" fill="#126CD6"/>
</g>
<defs>
<clipPath id="clip0_97_6577">
<rect width="20" height="20" fill="white"/>
</clipPath>
</defs>
</svg>
