<svg width="20" height="20" viewBox="0 0 20 20" fill="none" xmlns="http://www.w3.org/2000/svg">
<path fill-rule="evenodd" clip-rule="evenodd" d="M1.66667 5.00001C1.66667 4.07954 2.41286 3.33334 3.33334 3.33334C4.25381 3.33334 5.00001 4.07954 5.00001 5.00001C5.00001 5.92048 4.25381 6.66668 3.33334 6.66668C2.41286 6.66668 1.66667 5.92048 1.66667 5.00001ZM6.66667 5.00001C6.66667 4.53977 7.03977 4.16668 7.50001 4.16668H17.5C17.9602 4.16668 18.3333 4.53977 18.3333 5.00001C18.3333 5.46025 17.9602 5.83334 17.5 5.83334L7.50001 5.83334C7.03977 5.83334 6.66667 5.46025 6.66667 5.00001ZM1.66667 10C1.66667 9.07954 2.41286 8.33334 3.33334 8.33334C4.25381 8.33334 5.00001 9.07954 5.00001 10C5.00001 10.9205 4.25381 11.6667 3.33334 11.6667C2.41286 11.6667 1.66667 10.9205 1.66667 10ZM6.66667 10C6.66667 9.53977 7.03977 9.16668 7.50001 9.16668L17.5 9.16668C17.9602 9.16668 18.3333 9.53977 18.3333 10C18.3333 10.4602 17.9602 10.8333 17.5 10.8333L7.50001 10.8333C7.03977 10.8333 6.66667 10.4602 6.66667 10ZM1.66667 15C1.66667 14.0795 2.41286 13.3333 3.33334 13.3333C4.25381 13.3333 5.00001 14.0795 5.00001 15C5.00001 15.9205 4.25381 16.6667 3.33334 16.6667C2.41286 16.6667 1.66667 15.9205 1.66667 15ZM6.66667 15C6.66667 14.5398 7.03977 14.1667 7.50001 14.1667L17.5 14.1667C17.9602 14.1667 18.3333 14.5398 18.3333 15C18.3333 15.4602 17.9602 15.8333 17.5 15.8333L7.50001 15.8333C7.03977 15.8333 6.66667 15.4602 6.66667 15Z" fill="#475569"/>
</svg>
