<svg width="16" height="16" viewBox="0 0 16 16" fill="none" xmlns="http://www.w3.org/2000/svg">
<path fill-rule="evenodd" clip-rule="evenodd" d="M6.33332 2.66667C5.22875 2.66667 4.33332 3.5621 4.33332 4.66667C4.33332 5.77124 5.22875 6.66667 6.33332 6.66667C7.43789 6.66667 8.33332 5.77124 8.33332 4.66667C8.33332 3.5621 7.43789 2.66667 6.33332 2.66667ZM2.99999 4.66667C2.99999 2.82572 4.49237 1.33334 6.33332 1.33334C8.17427 1.33334 9.66666 2.82572 9.66666 4.66667C9.66666 6.50762 8.17427 8 6.33332 8C4.49237 8 2.99999 6.50762 2.99999 4.66667ZM9.71536 1.9437C9.85352 1.60241 10.2422 1.43773 10.5835 1.57588C11.8038 2.06988 12.6667 3.26671 12.6667 4.66667C12.6667 6.06663 11.8038 7.26346 10.5835 7.75746C10.2422 7.89561 9.85352 7.73093 9.71536 7.38964C9.57722 7.04835 9.74189 6.65969 10.0832 6.52154C10.8174 6.22435 11.3333 5.50496 11.3333 4.66667C11.3333 3.82837 10.8174 3.10899 10.0832 2.8118C9.74189 2.67365 9.57722 2.28499 9.71536 1.9437ZM5.30964 9.33334H7.35701C7.95818 9.33333 8.44312 9.33333 8.83779 9.36026C9.24361 9.38795 9.60247 9.44632 9.94227 9.58707C10.759 9.92538 11.4079 10.5743 11.7463 11.3911C11.887 11.7309 11.9454 12.0897 11.9731 12.4955C12 12.8902 12 13.3752 12 13.9763V14C12 14.3682 11.7015 14.6667 11.3333 14.6667C10.9651 14.6667 10.6667 14.3682 10.6667 14C10.6667 13.3696 10.6663 12.9302 10.6428 12.5863C10.6198 12.2484 10.5767 12.0516 10.5144 11.9013C10.3114 11.4112 9.92208 11.0219 9.43202 10.8189C9.28177 10.7567 9.08497 10.7136 8.74702 10.6905C8.4031 10.667 7.9637 10.6667 7.33332 10.6667H5.33332C4.70295 10.6667 4.26355 10.667 3.91962 10.6905C3.58168 10.7136 3.38488 10.7567 3.23462 10.8189C2.74457 11.0219 2.35522 11.4112 2.15223 11.9013C2.08999 12.0516 2.04687 12.2484 2.02382 12.5863C2.00035 12.9302 1.99999 13.3696 1.99999 14C1.99999 14.3682 1.70151 14.6667 1.33332 14.6667C0.965134 14.6667 0.666657 14.3682 0.666657 14L0.666657 13.9763C0.666652 13.3752 0.666648 12.8902 0.693577 12.4955C0.721266 12.0897 0.779642 11.7309 0.920392 11.3911C1.2587 10.5743 1.90762 9.92538 2.72438 9.58707C3.06418 9.44632 3.42303 9.38795 3.82886 9.36026C4.22353 9.33333 4.70847 9.33333 5.30964 9.33334ZM12.021 9.91784C12.1128 9.56127 12.4763 9.34661 12.8328 9.43839C14.2704 9.80839 15.3333 11.1126 15.3333 12.6667V14C15.3333 14.3682 15.0348 14.6667 14.6667 14.6667C14.2985 14.6667 14 14.3682 14 14V12.6667C14 11.7357 13.3632 10.9517 12.5005 10.7296C12.1439 10.6379 11.9293 10.2744 12.021 9.91784Z" fill="#475569"/>
</svg>
