<svg width="26" height="26" viewBox="0 0 26 26" fill="none" xmlns="http://www.w3.org/2000/svg">
<path d="M5 0.5C2.51472 0.5 0.5 2.51472 0.5 5V21C0.5 23.4853 2.51472 25.5 5 25.5H21C23.4853 25.5 25.5 23.4853 25.5 21V5C25.5 2.51472 23.4853 0.5 21 0.5H5Z" fill="white"/>
<path fill-rule="evenodd" clip-rule="evenodd" d="M13 7.66667C13.3682 7.66667 13.6667 7.96514 13.6667 8.33333V12.3333H17.6667C18.0349 12.3333 18.3333 12.6318 18.3333 13C18.3333 13.3682 18.0349 13.6667 17.6667 13.6667H13.6667V17.6667C13.6667 18.0349 13.3682 18.3333 13 18.3333C12.6318 18.3333 12.3333 18.0349 12.3333 17.6667V13.6667H8.33334C7.96515 13.6667 7.66667 13.3682 7.66667 13C7.66667 12.6318 7.96515 12.3333 8.33334 12.3333H12.3333V8.33333C12.3333 7.96514 12.6318 7.66667 13 7.66667Z" fill="#475569"/>
<path d="M5 0.5C2.51472 0.5 0.5 2.51472 0.5 5V21C0.5 23.4853 2.51472 25.5 5 25.5H21C23.4853 25.5 25.5 23.4853 25.5 21V5C25.5 2.51472 23.4853 0.5 21 0.5H5Z" stroke="#E2E8F0"/>
</svg>
