<svg width="20" height="20" viewBox="0 0 20 20" fill="none" xmlns="http://www.w3.org/2000/svg">
<path fill-rule="evenodd" clip-rule="evenodd" d="M10 3.33332C6.31812 3.33332 3.33335 6.31809 3.33335 9.99999C3.33335 13.6819 6.31812 16.6667 10 16.6667C13.1593 16.6667 15.8054 14.469 16.4928 11.5191L16.1725 11.8393C15.847 12.1647 15.3194 12.1646 14.994 11.8392C14.6686 11.5137 14.6687 10.986 14.9941 10.6606L16.6613 8.99398C16.8176 8.83772 17.0296 8.74996 17.2506 8.74999C17.4716 8.75002 17.6836 8.83785 17.8398 8.99416L19.506 10.6608C19.8314 10.9863 19.8313 11.5139 19.5058 11.8393C19.1803 12.1647 18.6527 12.1646 18.3273 11.8392L18.1647 11.6765C17.3888 15.4753 14.0282 18.3333 10 18.3333C5.39765 18.3333 1.66669 14.6024 1.66669 9.99999C1.66669 5.39762 5.39765 1.66666 10 1.66666C13.0584 1.66666 15.7309 3.31465 17.1796 5.76706C17.4137 6.16332 17.2822 6.67431 16.886 6.9084C16.4897 7.14248 15.9787 7.011 15.7446 6.61474C14.5833 4.64889 12.4449 3.33332 10 3.33332ZM10 4.99999C10.4603 4.99999 10.8334 5.37309 10.8334 5.83332V9.554L12.9623 10.9733C13.3452 11.2286 13.4487 11.746 13.1934 12.1289C12.9381 12.5118 12.4207 12.6153 12.0378 12.36L9.53777 10.6934C9.30594 10.5388 9.16669 10.2786 9.16669 9.99999V5.83332C9.16669 5.37309 9.53978 4.99999 10 4.99999Z" fill="#475569"/>
</svg>
