<svg width="20" height="20" viewBox="0 0 20 20" fill="none" xmlns="http://www.w3.org/2000/svg">
<path fill-rule="evenodd" clip-rule="evenodd" d="M9.16666 3.33332C5.945 3.33332 3.33332 5.945 3.33332 9.16666C3.33332 12.3883 5.945 15 9.16666 15C10.7383 15 12.1647 14.3785 13.2136 13.3678C13.2356 13.3393 13.2596 13.3119 13.2857 13.2857C13.3119 13.2596 13.3393 13.2356 13.3678 13.2136C14.3785 12.1647 15 10.7383 15 9.16666C15 5.945 12.3883 3.33332 9.16666 3.33332ZM15.0266 13.8481C16.0529 12.565 16.6667 10.9375 16.6667 9.16666C16.6667 5.02452 13.3088 1.66666 9.16666 1.66666C5.02452 1.66666 1.66666 5.02452 1.66666 9.16666C1.66666 13.3088 5.02452 16.6667 9.16666 16.6667C10.9375 16.6667 12.565 16.0529 13.8481 15.0266L16.9107 18.0892C17.2362 18.4147 17.7638 18.4147 18.0892 18.0892C18.4147 17.7638 18.4147 17.2362 18.0892 16.9107L15.0266 13.8481ZM8.33332 4.99999C8.33332 4.53975 8.70642 4.16666 9.16666 4.16666C11.9281 4.16666 14.1667 6.40523 14.1667 9.16666C14.1667 9.62689 13.7936 9.99999 13.3333 9.99999C12.8731 9.99999 12.5 9.62689 12.5 9.16666C12.5 7.32571 11.0076 5.83332 9.16666 5.83332C8.70642 5.83332 8.33332 5.46023 8.33332 4.99999Z" fill="#126CD6"/>
</svg>
