<svg width="16" height="16" viewBox="0 0 16 16" fill="none" xmlns="http://www.w3.org/2000/svg">
<path fill-rule="evenodd" clip-rule="evenodd" d="M7.99999 2C5.79085 2 3.99999 3.79086 3.99999 6C3.99999 7.34751 4.66631 8.5394 5.68743 9.26415C5.6927 9.26776 5.69792 9.27144 5.70307 9.27519C6.35309 9.7319 7.14523 10 7.99999 10C8.85499 10 9.64734 9.73174 10.2975 9.2748C10.3026 9.27105 10.3078 9.26737 10.3131 9.26375C11.3339 8.53897 12 7.34727 12 6C12 3.79086 10.2091 2 7.99999 2ZM11.4011 10.1084C12.5814 9.1301 13.3333 7.65286 13.3333 6C13.3333 3.05448 10.9455 0.666668 7.99999 0.666668C5.05447 0.666668 2.66666 3.05448 2.66666 6C2.66666 7.65313 3.41878 9.13059 4.59951 10.1089L4.00579 14.5789C3.97209 14.8327 4.08667 15.0833 4.30063 15.2239C4.51459 15.3644 4.79014 15.37 5.00965 15.2383L7.99999 13.4441L10.9903 15.2383C11.2098 15.37 11.4854 15.3644 11.6993 15.2239C11.9133 15.0834 12.0279 14.8327 11.9942 14.579L11.4011 10.1084ZM10.1582 10.8786C9.49839 11.1709 8.76815 11.3333 7.99999 11.3333C7.23203 11.3333 6.50199 11.171 5.84228 10.8788L5.50962 13.3834L7.38259 12.2596C7.3882 12.2563 7.39468 12.2523 7.40197 12.2478C7.47219 12.2048 7.61779 12.1155 7.7855 12.0787C7.92681 12.0476 8.07317 12.0476 8.21447 12.0787C8.38218 12.1155 8.52779 12.2048 8.59801 12.2478C8.6053 12.2523 8.61007 12.2552 8.61738 12.2596C9.21912 11.7203 10.1582 10.8786 10.1582 10.8786ZM10.1582 10.8786L10.4906 13.3836C10.4906 13.3836 9.34891 12.6986 8.61738 12.2596C9.21912 11.7203 10.1582 10.8786 10.1582 10.8786Z" fill="#475569"/>
<path fill-rule="evenodd" clip-rule="evenodd" d="M7.65219 2.74534C7.87219 2.64044 8.12779 2.64044 8.34779 2.74534C8.55311 2.84324 8.6568 3.00851 8.69262 3.06701C8.73098 3.12967 8.768 3.20481 8.79448 3.25858C8.79664 3.26296 8.79873 3.2672 8.80075 3.27128L9.31703 4.31721L10.472 4.48603C10.4765 4.48668 10.4812 4.48736 10.486 4.48807C10.5453 4.49668 10.6282 4.50873 10.6996 4.52591C10.7663 4.54195 10.9554 4.58963 11.1119 4.75472C11.2794 4.93163 11.3583 5.17472 11.3264 5.41631C11.2966 5.64177 11.1714 5.79136 11.1268 5.84349C11.0791 5.89931 11.019 5.9577 10.9761 5.99947C10.9726 6.00287 10.9692 6.00617 10.9659 6.00934L10.1309 6.82266L10.3279 7.97142C10.3287 7.97591 10.3295 7.98056 10.3303 7.98537C10.3405 8.04445 10.3547 8.12703 10.3605 8.20028C10.3659 8.26865 10.3792 8.46335 10.2706 8.66327C10.1543 8.87747 9.94747 9.02771 9.7078 9.07214C9.4841 9.11361 9.30305 9.04079 9.23969 9.01451C9.17183 8.98635 9.0977 8.94729 9.04466 8.91934C9.04034 8.91707 9.03616 8.91486 9.03213 8.91275L7.99999 8.36995L6.96785 8.91275C6.96383 8.91486 6.95965 8.91706 6.95534 8.91934C6.9023 8.94728 6.82816 8.98634 6.76029 9.01451C6.69693 9.04079 6.51588 9.11361 6.29218 9.07214C6.05251 9.02771 5.84569 8.87747 5.72935 8.66327C5.62075 8.46335 5.63403 8.26865 5.63945 8.20028C5.64525 8.12703 5.65948 8.04445 5.66966 7.98537C5.67049 7.98056 5.67129 7.97591 5.67206 7.97142L5.86908 6.82266L5.03405 6.00934C5.03079 6.00617 5.02741 6.00287 5.02391 5.99947C4.98096 5.9577 4.92091 5.89931 4.87316 5.8435C4.82855 5.79136 4.70339 5.64177 4.67361 5.41631C4.64171 5.17472 4.72053 4.93163 4.88813 4.75472C5.04453 4.58963 5.23366 4.54195 5.30037 4.52591C5.3718 4.50873 5.45468 4.49668 5.51397 4.48807C5.5188 4.48736 5.52347 4.48668 5.52797 4.48603L6.68295 4.31721L7.19923 3.27128C7.20125 3.2672 7.20333 3.26296 7.20549 3.25858C7.23198 3.20482 7.269 3.12967 7.30736 3.06701C7.34318 3.00851 7.44687 2.84324 7.65219 2.74534ZM7.99999 4.66138L7.77621 5.11473C7.77615 5.11484 7.776 5.11519 7.77574 5.11575C7.77011 5.12818 7.71568 5.24823 7.62386 5.34706C7.55271 5.42365 7.46737 5.4857 7.37258 5.52977C7.25026 5.58666 7.11928 5.60142 7.10571 5.60295C7.1051 5.60302 7.10472 5.60306 7.1046 5.60308L6.60315 5.67637L6.96531 6.02912C6.9654 6.0292 6.96567 6.02946 6.96613 6.02987C6.97622 6.03907 7.07377 6.12801 7.13949 6.24605C7.19041 6.3375 7.22308 6.43798 7.23568 6.54189C7.25194 6.67601 7.22535 6.80531 7.2226 6.81868C7.22248 6.81929 7.2224 6.81966 7.22238 6.81978L7.13705 7.3173L7.58434 7.08207C7.58445 7.08201 7.58478 7.08183 7.58531 7.08152C7.59718 7.07478 7.71191 7.00952 7.84447 6.98353C7.94717 6.96339 8.05281 6.96339 8.15551 6.98353C8.28807 7.00952 8.4028 7.07478 8.41466 7.08152C8.4152 7.08183 8.41553 7.08201 8.41564 7.08207L8.86293 7.3173L8.7776 6.81978C8.77758 6.81966 8.7775 6.81929 8.77738 6.81868C8.77462 6.8053 8.74804 6.676 8.7643 6.54189C8.7769 6.43798 8.80957 6.3375 8.86049 6.24605C8.92621 6.12801 9.02377 6.03907 9.03385 6.02987C9.03431 6.02946 9.03458 6.0292 9.03467 6.02912L9.39683 5.67637L8.89538 5.60308C8.89526 5.60306 8.89488 5.60302 8.89427 5.60295C8.88071 5.60142 8.74972 5.58666 8.62739 5.52977C8.53261 5.4857 8.44727 5.42365 8.37612 5.34706C8.28429 5.24823 8.22987 5.12818 8.22424 5.11575C8.22398 5.11518 8.22383 5.11484 8.22377 5.11473L7.99999 4.66138Z" fill="#475569"/>
</svg>
