<svg width="20" height="20" viewBox="0 0 20 20" fill="none" xmlns="http://www.w3.org/2000/svg">
<path fill-rule="evenodd" clip-rule="evenodd" d="M9.58342 3.33332C6.13163 3.33332 3.33341 6.13154 3.33341 9.58332C3.33341 13.0351 6.13163 15.8333 9.58342 15.8333C11.261 15.8333 12.7842 15.1724 13.9069 14.0967C13.9328 14.0607 13.9619 14.0264 13.9942 13.9941C14.0266 13.9617 14.0609 13.9326 14.0969 13.9067C15.1725 12.7841 15.8334 11.2609 15.8334 9.58332C15.8334 6.13154 13.0352 3.33332 9.58342 3.33332ZM15.7397 14.561C16.8406 13.2012 17.5001 11.4693 17.5001 9.58332C17.5001 5.21107 13.9557 1.66666 9.58342 1.66666C5.21116 1.66666 1.66675 5.21107 1.66675 9.58332C1.66675 13.9556 5.21116 17.5 9.58342 17.5C11.4694 17.5 13.2013 16.8405 14.5612 15.7396L16.9108 18.0892C17.2363 18.4147 17.7639 18.4147 18.0893 18.0893C18.4148 17.7638 18.4148 17.2362 18.0893 16.9107L15.7397 14.561Z" fill="#475569"/>
</svg>
